<svg width="16" height="17" viewBox="0 0 16 17" fill="none" xmlns="http://www.w3.org/2000/svg">
<g id="User / User_Square" opacity="0.5">
<path id="Vector" d="M11.3333 14.5C11.3333 12.6591 9.84095 11.1667 8 11.1667C6.15905 11.1667 4.66667 12.6591 4.66667 14.5M11.3333 14.5H11.8687C12.614 14.5 12.9867 14.5 13.2716 14.3548C13.5225 14.227 13.727 14.0225 13.8548 13.7716C14 13.4867 14 13.114 14 12.3687V4.63127C14 3.886 14 3.5128 13.8548 3.22786C13.727 2.97698 13.5225 2.77316 13.2716 2.64532C12.9864 2.5 12.6135 2.5 11.8668 2.5H4.13346C3.38673 2.5 3.01308 2.5 2.72786 2.64532C2.47698 2.77316 2.27316 2.97698 2.14532 3.22786C2 3.51308 2 3.88673 2 4.63346V12.3668C2 13.1135 2 13.4864 2.14532 13.7716C2.27316 14.0225 2.47698 14.227 2.72786 14.3548C3.0128 14.5 3.386 14.5 4.13127 14.5H4.66667M11.3333 14.5H4.66667M8 9.16667C6.89543 9.16667 6 8.27124 6 7.16667C6 6.0621 6.89543 5.16667 8 5.16667C9.10457 5.16667 10 6.0621 10 7.16667C10 8.27124 9.10457 9.16667 8 9.16667Z" stroke="white" stroke-linecap="round" stroke-linejoin="round"/>
</g>
</svg>
