<svg width="16" height="17" viewBox="0 0 16 17" fill="none" xmlns="http://www.w3.org/2000/svg">
<path d="M4.5 3C3.39543 3 2.5 3.89543 2.5 5C2.5 6.10457 3.39543 7 4.5 7C5.60457 7 6.5 6.10457 6.5 5C6.5 3.89543 5.60457 3 4.5 3Z" stroke="white" stroke-linecap="round" stroke-linejoin="round"/>
<path d="M11.5 3C10.3954 3 9.5 3.89543 9.5 5C9.5 6.10457 10.3954 7 11.5 7C12.6046 7 13.5 6.10457 13.5 5C13.5 3.89543 12.6046 3 11.5 3Z" stroke="white" stroke-linecap="round" stroke-linejoin="round"/>
<path d="M11.5 10C10.3954 10 9.5 10.8954 9.5 12C9.5 13.1046 10.3954 14 11.5 14C12.6046 14 13.5 13.1046 13.5 12C13.5 10.8954 12.6046 10 11.5 10Z" stroke="white" stroke-linecap="round" stroke-linejoin="round"/>
<path d="M4.5 10C3.39543 10 2.5 10.8954 2.5 12C2.5 13.1046 3.39543 14 4.5 14C5.60457 14 6.5 13.1046 6.5 12C6.5 10.8954 5.60457 10 4.5 10Z" stroke="white" stroke-linecap="round" stroke-linejoin="round"/>
</svg>
