<svg width="33" height="33" viewBox="0 0 33 33" fill="none" xmlns="http://www.w3.org/2000/svg">
<path d="M12.8999 6.0002C12.495 4.98778 11.5144 4.32391 10.424 4.32391H6.7563C5.36105 4.32391 4.22998 5.45471 4.22998 6.84996C4.22998 18.7095 13.8444 28.3239 25.7039 28.3239C27.0992 28.3239 28.23 27.1927 28.23 25.7975L28.2306 22.1292C28.2306 21.0388 27.5669 20.0584 26.5545 19.6534L23.0392 18.2478C22.1298 17.8841 21.0944 18.0478 20.3419 18.6748L19.4347 19.4315C18.3751 20.3144 16.8162 20.2442 15.8409 19.269L13.2863 16.712C12.311 15.7367 12.239 14.179 13.1219 13.1195L13.8784 12.2123C14.5055 11.4599 14.6706 10.4241 14.3069 9.5147L12.8999 6.0002Z" fill="white"/>
</svg>
