<svg width="173" height="40" viewBox="0 0 173 40" fill="none" xmlns="http://www.w3.org/2000/svg">
<path d="M8.77154 2.80906L18.6866 6.13993L21.4354 13.7208L6.05785 19.339L3.30909 11.7581L8.77154 2.80906Z" fill="#423CF3"/>
<path d="M31.0932 37.1909L21.1781 33.8601L18.4293 26.2792L33.8069 20.661L36.5557 28.2419L31.0932 37.1909Z" fill="#423CF3"/>
<path d="M37.0502 8.99579L33.7319 18.9485L26.1797 21.7077L20.5828 6.2718L28.1349 3.5126L37.0502 8.99579Z" fill="#423CF3"/>
<path d="M2.79844 31.1097L6.11672 21.1569L13.6689 18.3977L19.2659 33.8337L11.7137 36.5929L2.79844 31.1097Z" fill="#423CF3"/>
<path d="M49.7262 29.5V12.3006H56.0741C59.7152 12.3006 61.6555 13.9056 61.6555 16.7801C61.6555 18.9839 60.3141 20.0858 58.9966 20.541C60.9369 21.068 62.2304 22.5771 62.2304 24.757C62.2304 27.7513 60.0506 29.5 56.5772 29.5H49.7262ZM51.9539 19.6786H55.8825C58.1821 19.6786 59.4517 18.7923 59.4517 16.9718C59.4517 15.1272 58.1821 14.2409 55.8825 14.2409H51.9539V19.6786ZM51.9539 21.6429V27.5597H56.4813C58.781 27.5597 60.0266 26.3619 60.0266 24.5893C60.0266 22.8406 58.781 21.6429 56.4813 21.6429H51.9539ZM65.0253 29.5V12.3006H67.3249V27.4878H75.9007V29.5H65.0253ZM83.7505 29.7395C79.8698 29.7395 76.9953 27.4399 76.9953 22.6969V12.3006H79.2949V22.625C79.2949 26.1464 81.1634 27.6795 83.7505 27.6795C86.3615 27.6795 88.23 26.1464 88.23 22.625V12.3006H90.5296V22.6969C90.5296 27.4399 87.6551 29.7395 83.7505 29.7395ZM94.0094 12.3006H105.244V14.3128H96.2851V19.6068H103.879V21.6189H96.2851V27.4878H105.244V29.5H94.0094V12.3006ZM113.309 29.5V12.3006H115.608V27.4878H124.184V29.5H113.309ZM124.748 20.9003C124.748 15.6542 128.054 12.0371 132.557 12.0371C137.06 12.0371 140.342 15.6542 140.342 20.9003C140.342 26.1464 137.06 29.7635 132.557 29.7635C128.054 29.7635 124.748 26.1464 124.748 20.9003ZM138.067 20.9003C138.067 16.828 135.791 14.0732 132.557 14.0732C129.323 14.0732 127.047 16.828 127.047 20.9003C127.047 24.9726 129.323 27.7274 132.557 27.7274C135.791 27.7274 138.067 24.9726 138.067 20.9003ZM144.499 20.9003C144.499 24.9726 146.75 27.7274 149.936 27.7274C152.164 27.7274 153.769 26.4338 154.392 24.2539L156.572 24.9726C155.566 27.943 153.218 29.7635 149.936 29.7635C145.481 29.7635 142.199 26.1464 142.199 20.9003C142.199 15.6542 145.481 12.0371 149.936 12.0371C153.218 12.0371 155.566 13.8577 156.572 16.828L154.392 17.5467C153.769 15.3668 152.164 14.0732 149.936 14.0732C146.75 14.0732 144.499 16.828 144.499 20.9003ZM161.295 12.3006V20.9961L169.296 12.3006H172.051L165.08 19.7984L172.386 29.5H169.679L163.547 21.4513L161.295 23.8707V29.5H158.996V12.3006H161.295Z" fill="white"/>
</svg>
