<svg width="33" height="33" viewBox="0 0 33 33" fill="none" xmlns="http://www.w3.org/2000/svg">
<path d="M16.9777 20.4661C18.2508 20.4661 19.4717 19.9604 20.3718 19.0603C21.272 18.1601 21.7777 16.9392 21.7777 15.6661V9.66615C21.7777 8.39311 21.272 7.17221 20.3718 6.27204C19.4717 5.37186 18.2508 4.86615 16.9777 4.86615C15.7047 4.86615 14.4838 5.37186 13.5836 6.27204C12.6834 7.17221 12.1777 8.39311 12.1777 9.66615V15.6661C12.1777 16.9392 12.6834 18.1601 13.5836 19.0603C14.4838 19.9604 15.7047 20.4661 16.9777 20.4661ZM14.5777 9.66615C14.5777 9.02963 14.8306 8.41918 15.2807 7.96909C15.7308 7.51901 16.3412 7.26615 16.9777 7.26615C17.6143 7.26615 18.2247 7.51901 18.6748 7.96909C19.1249 8.41918 19.3777 9.02963 19.3777 9.66615V15.6661C19.3777 16.3027 19.1249 16.9131 18.6748 17.3632C18.2247 17.8133 17.6143 18.0661 16.9777 18.0661C16.3412 18.0661 15.7308 17.8133 15.2807 17.3632C14.8306 16.9131 14.5777 16.3027 14.5777 15.6661V9.66615Z" fill="white"/>
<path d="M25.3776 15.6659C25.3776 15.3477 25.2512 15.0424 25.0262 14.8174C24.8011 14.5923 24.4959 14.4659 24.1776 14.4659C23.8594 14.4659 23.5542 14.5923 23.3291 14.8174C23.1041 15.0424 22.9776 15.3477 22.9776 15.6659C22.9776 17.2572 22.3455 18.7833 21.2203 19.9086C20.0951 21.0338 18.5689 21.6659 16.9776 21.6659C15.3863 21.6659 13.8602 21.0338 12.735 19.9086C11.6098 18.7833 10.9776 17.2572 10.9776 15.6659C10.9776 15.3477 10.8512 15.0424 10.6262 14.8174C10.4011 14.5923 10.0959 14.4659 9.77764 14.4659C9.45938 14.4659 9.15415 14.5923 8.92911 14.8174C8.70407 15.0424 8.57764 15.3477 8.57764 15.6659C8.58 17.6841 9.30893 19.634 10.6311 21.1589C11.9532 22.6837 13.7801 23.6816 15.7776 23.9699V26.4659H13.2456C12.9624 26.4659 12.6907 26.5784 12.4904 26.7787C12.2902 26.979 12.1776 27.2507 12.1776 27.5339V27.7979C12.1776 28.0812 12.2902 28.3528 12.4904 28.5531C12.6907 28.7534 12.9624 28.8659 13.2456 28.8659H20.7096C20.9929 28.8659 21.2645 28.7534 21.4648 28.5531C21.6651 28.3528 21.7776 28.0812 21.7776 27.7979V27.5339C21.7776 27.2507 21.6651 26.979 21.4648 26.7787C21.2645 26.5784 20.9929 26.4659 20.7096 26.4659H18.1776V23.9699C20.1752 23.6816 22.0021 22.6837 23.3242 21.1589C24.6463 19.634 25.3753 17.6841 25.3776 15.6659Z" fill="white"/>
</svg>
