<svg width="31" height="31" viewBox="0 0 31 31" fill="none" xmlns="http://www.w3.org/2000/svg">
<path d="M3.25859 12.4656C3.49577 12.7937 3.83046 13.0403 4.2139 13.1687L6.4639 13.9019C7.14172 14.128 7.73718 14.5502 8.17484 15.115C8.42421 15.4375 8.61734 15.7994 8.74484 16.1875L9.48734 18.4656C9.61991 18.8472 9.86814 19.178 10.1975 19.4119C10.5268 19.6458 10.9209 19.7712 11.3248 19.7706C11.7297 19.7723 12.1249 19.6467 12.4545 19.4116C12.7855 19.1678 13.0358 18.8303 13.1736 18.4431L13.9058 16.1912C14.0839 15.6606 14.382 15.1787 14.7776 14.7812C15.1708 14.3869 15.6508 14.0899 16.1792 13.9141L18.4705 13.1697C18.7532 13.0688 19.0087 12.904 19.2172 12.688C19.4256 12.472 19.5812 12.2107 19.6719 11.9246C19.7626 11.6384 19.7859 11.3352 19.7399 11.0386C19.694 10.7419 19.58 10.46 19.407 10.2147C19.1572 9.86573 18.8014 9.60666 18.3927 9.47593L16.137 8.74562C15.6063 8.57028 15.124 8.27332 14.7284 7.87843C14.3329 7.48354 14.0351 7.00166 13.8589 6.47125L13.1145 4.18375C12.9812 3.80532 12.7335 3.47771 12.4058 3.24625C12.075 3.01815 11.6826 2.896 11.2808 2.896C10.8789 2.896 10.4866 3.01815 10.1558 3.24625C9.81873 3.48332 9.5659 3.82152 9.4339 4.21187L8.68577 6.51437C8.50915 7.02918 8.21839 7.49737 7.83524 7.88393C7.4521 8.27048 6.9865 8.56538 6.47327 8.74656L4.18577 9.48718C3.90004 9.58804 3.64179 9.75419 3.43157 9.97241C3.22135 10.1906 3.06496 10.4549 2.97484 10.7442C2.88471 11.0335 2.86335 11.3398 2.91245 11.6388C2.96155 11.9378 3.07975 12.2213 3.25765 12.4666M11.3323 17.8956H11.3211C11.3081 17.8955 11.2955 17.8916 11.2847 17.8844C11.2739 17.8773 11.2654 17.8672 11.2601 17.8553L10.527 15.6062L10.5261 15.6016C10.3319 15.0109 10.038 14.4579 9.65703 13.9666L9.65515 13.9637C8.99086 13.1075 8.0879 12.4672 7.06015 12.1234L7.05265 12.1216L4.80921 11.3912C4.79564 11.3859 4.78398 11.3767 4.77578 11.3646C4.76758 11.3526 4.76322 11.3383 4.76327 11.3237C4.76342 11.3101 4.76735 11.2967 4.77463 11.2851C4.78191 11.2735 4.79226 11.2642 4.80452 11.2581L7.07328 10.5222L7.09671 10.5137C7.87696 10.2387 8.58483 9.79059 9.16722 9.203C9.74961 8.61541 10.1914 7.9036 10.4595 7.12093L10.4642 7.10687L11.2123 4.80906C11.2161 4.79968 11.2217 4.79031 11.2292 4.78375C11.245 4.77505 11.2627 4.77048 11.2808 4.77048C11.2988 4.77048 11.3165 4.77505 11.3323 4.78375C11.337 4.78843 11.3417 4.79406 11.3436 4.80062L12.0767 7.05062L12.0805 7.06187C12.3488 7.86958 12.8022 8.60342 13.4044 9.20485C14.0067 9.80628 14.7411 10.2587 15.5492 10.5259L17.8142 11.26L17.8217 11.2619C17.8439 11.2693 17.8634 11.283 17.878 11.3012C17.8849 11.3124 17.8884 11.3254 17.8881 11.3386C17.8878 11.3517 17.8836 11.3645 17.8761 11.3753L17.8752 11.3772C17.8681 11.3868 17.8587 11.3945 17.848 11.3997L15.5998 12.1309L15.5886 12.1347C14.7821 12.4027 14.0494 12.8557 13.4492 13.4575C12.8494 14.0587 12.397 14.7906 12.1273 15.5959L12.1255 15.6044L11.4036 17.8244C11.3927 17.8493 11.3768 17.8716 11.3567 17.89C11.3491 17.8935 11.3408 17.8954 11.3323 17.8956ZM24.1255 18.6841C24.2332 19.0049 24.4142 19.2963 24.654 19.5352C24.8939 19.7741 25.186 19.9538 25.5073 20.0603L27.0589 20.5666C27.3859 20.668 27.6724 20.8703 27.8776 21.1444C28.0827 21.4184 28.196 21.7504 28.2012 22.0927C28.2064 22.435 28.1033 22.7702 27.9065 23.0504C27.7098 23.3306 27.4295 23.5415 27.1058 23.6528L25.5373 24.1647C25.2153 24.2693 24.9228 24.4493 24.6842 24.6897C24.4449 24.9303 24.2643 25.2229 24.1564 25.5447L23.652 27.0916C23.5393 27.4195 23.326 27.7036 23.0427 27.9034C22.7709 28.0987 22.4454 28.2051 22.1108 28.2081C21.7733 28.209 21.4439 28.1047 21.1684 27.9099C20.8929 27.715 20.6849 27.4391 20.5733 27.1206L20.0595 25.5494C19.9552 25.2262 19.7756 24.9325 19.5355 24.6925C19.2943 24.4524 19.0011 24.2712 18.6786 24.1628L17.1289 23.6612C16.8003 23.5493 16.5157 23.3359 16.3161 23.0519C16.1694 22.8465 16.0725 22.6098 16.0333 22.3604C15.994 22.1111 16.0134 21.8561 16.09 21.6156C16.1665 21.3751 16.298 21.1557 16.4742 20.9749C16.6503 20.7941 16.8661 20.6569 17.1045 20.5741L18.6805 20.0603C18.996 19.9495 19.2818 19.7675 19.5157 19.5286C19.7496 19.2896 19.9254 19 20.0295 18.6822L20.5311 17.1353C20.6108 16.8933 20.7463 16.6734 20.9268 16.4935C21.1072 16.3136 21.3274 16.1786 21.5697 16.0996C21.8119 16.0206 22.0693 15.9996 22.3211 16.0385C22.573 16.0774 22.8121 16.175 23.0192 16.3234C23.2958 16.5175 23.5039 16.7941 23.6136 17.1128L24.1255 18.6841ZM24.9158 21.8397C24.3188 21.6414 23.776 21.3071 23.3304 20.8631C22.8847 20.4191 22.5484 19.8775 22.348 19.2812L22.3451 19.2728L22.0761 18.4478L21.8089 19.2728C21.612 19.8634 21.2839 20.4016 20.8489 20.8469L20.8442 20.8516C20.4114 21.2904 19.8843 21.6248 19.303 21.8294L19.2823 21.8359L18.4339 22.1125L19.2655 22.3816L19.2748 22.3853C19.8711 22.585 20.413 22.9197 20.8592 23.3641L20.8611 23.3659C21.3111 23.8159 21.6467 24.3644 21.8427 24.9691L21.8436 24.9728L22.108 25.7791L22.3761 24.9559L22.3789 24.9484C22.5785 24.3543 22.9121 23.8141 23.3539 23.3697C23.8019 22.918 24.3512 22.5796 24.9561 22.3825L25.768 22.1172L24.9158 21.8397Z" fill="white"/>
</svg>
