<svg width="40" height="40" viewBox="0 0 40 40" fill="none" xmlns="http://www.w3.org/2000/svg">
<path d="M20 15.0001V21.6668M7.29818 25.3331C5.78245 27.9584 5.02481 29.2715 5.13802 30.3487C5.23677 31.2882 5.72987 32.1417 6.49414 32.697C7.37006 33.3334 8.88484 33.3334 11.9142 33.3334H28.0858C31.1152 33.3334 32.6297 33.3334 33.5056 32.697C34.2699 32.1417 34.7632 31.2882 34.862 30.3487C34.9752 29.2715 34.2178 27.9584 32.702 25.3331L24.6191 11.3331C23.1034 8.70779 22.3452 7.39536 21.3558 6.95484C20.4928 6.5706 19.5067 6.5706 18.6437 6.95484C17.6546 7.39518 16.8969 8.70761 15.3824 11.3307L7.29818 25.3331ZM20.0846 26.6668V26.8334L19.917 26.8337V26.6668H20.0846Z" stroke="#FADB37" stroke-width="2" stroke-linecap="round" stroke-linejoin="round"/>
</svg>
